<svg xmlns="http://www.w3.org/2000/svg" viewBox="0 0 32 32" fill="none" stroke="#5a8f5a" stroke-width="1.5" stroke-linecap="round" stroke-linejoin="round">
  <!-- Soil/ground line -->
  <path d="M4 24h24"/>
  <!-- Raised bed / planter box -->
  <rect x="7" y="20" width="18" height="4" rx="1" fill="none"/>
  <!-- Center plant stem -->
  <path d="M16 20v-8"/>
  <!-- Left leaf -->
  <path d="M16 16c-3-1-5-4-4-7 3 1 5 4 4 7z" fill="rgba(90,143,90,0.15)"/>
  <!-- Right leaf -->
  <path d="M16 13c3-1 5-4 4-7-3 1-5 4-4 7z" fill="rgba(90,143,90,0.15)"/>
  <!-- Small sprout left -->
  <path d="M11 20v-3"/>
  <path d="M11 18c-1.5-.5-2.5-2-2-3.5 1.5.5 2.5 2 2 3.5z" fill="rgba(90,143,90,0.1)"/>
  <!-- Small sprout right -->
  <path d="M21 20v-3"/>
  <path d="M21 18c1.5-.5 2.5-2 2-3.5-1.5.5-2.5 2-2 3.5z" fill="rgba(90,143,90,0.1)"/>
</svg>
